<svg width="150" height="150" viewBox="0 0 150 150" fill="none" xmlns="http://www.w3.org/2000/svg">
<path d="M132.34 60.2461C130.131 57.9375 127.846 55.5586 126.984 53.4668C126.188 51.5508 126.141 48.375 126.094 45.2988C126.006 39.5801 125.912 33.0996 121.406 28.5937C116.9 24.0879 110.42 23.9941 104.701 23.9062C101.625 23.8594 98.4492 23.8125 96.5332 23.0156C94.4473 22.1543 92.0625 19.8691 89.7539 17.6602C85.7109 13.7754 81.1172 9.375 75 9.375C68.8828 9.375 64.2949 13.7754 60.2461 17.6602C57.9375 19.8691 55.5586 22.1543 53.4668 23.0156C51.5625 23.8125 48.375 23.8594 45.2988 23.9062C39.5801 23.9941 33.0996 24.0879 28.5937 28.5937C24.0879 33.0996 24.0234 39.5801 23.9062 45.2988C23.8594 48.375 23.8125 51.5508 23.0156 53.4668C22.1543 55.5527 19.8691 57.9375 17.6602 60.2461C13.7754 64.2891 9.375 68.8828 9.375 75C9.375 81.1172 13.7754 85.7051 17.6602 89.7539C19.8691 92.0625 22.1543 94.4414 23.0156 96.5332C23.8125 98.4492 23.8594 101.625 23.9062 104.701C23.9941 110.42 24.0879 116.9 28.5937 121.406C33.0996 125.912 39.5801 126.006 45.2988 126.094C48.375 126.141 51.5508 126.188 53.4668 126.984C55.5527 127.846 57.9375 130.131 60.2461 132.34C64.2891 136.225 68.8828 140.625 75 140.625C81.1172 140.625 85.7051 136.225 89.7539 132.34C92.0625 130.131 94.4414 127.846 96.5332 126.984C98.4492 126.188 101.625 126.141 104.701 126.094C110.42 126.006 116.9 125.912 121.406 121.406C125.912 116.9 126.006 110.42 126.094 104.701C126.141 101.625 126.188 98.4492 126.984 96.5332C127.846 94.4473 130.131 92.0625 132.34 89.7539C136.225 85.7109 140.625 81.1172 140.625 75C140.625 68.8828 136.225 64.2949 132.34 60.2461ZM125.572 83.2676C122.766 86.1973 119.859 89.2266 118.318 92.9473C116.842 96.5215 116.777 100.605 116.719 104.561C116.66 108.662 116.596 112.957 114.773 114.773C112.951 116.59 108.686 116.66 104.561 116.719C100.605 116.777 96.5215 116.842 92.9473 118.318C89.2266 119.859 86.1973 122.766 83.2676 125.572C80.3379 128.379 77.3438 131.25 75 131.25C72.6562 131.25 69.6387 128.367 66.7324 125.572C63.8262 122.777 60.7734 119.859 57.0527 118.318C53.4785 116.842 49.3945 116.777 45.4395 116.719C41.3379 116.66 37.043 116.596 35.2266 114.773C33.4102 112.951 33.3398 108.686 33.2812 104.561C33.2227 100.605 33.1582 96.5215 31.6816 92.9473C30.1406 89.2266 27.2344 86.1973 24.4277 83.2676C21.6211 80.3379 18.75 77.3438 18.75 75C18.75 72.6562 21.6328 69.6387 24.4277 66.7324C27.2227 63.8262 30.1406 60.7734 31.6816 57.0527C33.1582 53.4785 33.2227 49.3945 33.2812 45.4395C33.3398 41.3379 33.4043 37.043 35.2266 35.2266C37.0488 33.4102 41.3145 33.3398 45.4395 33.2812C49.3945 33.2227 53.4785 33.1582 57.0527 31.6816C60.7734 30.1406 63.8027 27.2344 66.7324 24.4277C69.6621 21.6211 72.6562 18.75 75 18.75C77.3438 18.75 80.3613 21.6328 83.2676 24.4277C86.1738 27.2227 89.2266 30.1406 92.9473 31.6816C96.5215 33.1582 100.605 33.2227 104.561 33.2812C108.662 33.3398 112.957 33.4043 114.773 35.2266C116.59 37.0488 116.66 41.3145 116.719 45.4395C116.777 49.3945 116.842 53.4785 118.318 57.0527C119.859 60.7734 122.766 63.8027 125.572 66.7324C128.379 69.6621 131.25 72.6562 131.25 75C131.25 77.3438 128.367 80.3613 125.572 83.2676ZM101.754 57.6211C102.19 58.0564 102.535 58.5734 102.771 59.1425C103.007 59.7115 103.129 60.3215 103.129 60.9375C103.129 61.5535 103.007 62.1635 102.771 62.7325C102.535 63.3016 102.19 63.8186 101.754 64.2539L68.9414 97.0664C68.5061 97.5022 67.9891 97.848 67.42 98.0839C66.851 98.3198 66.241 98.4412 65.625 98.4412C65.009 98.4412 64.399 98.3198 63.83 98.0839C63.2609 97.848 62.7439 97.5022 62.3086 97.0664L48.2461 83.0039C47.3665 82.1243 46.8724 80.9314 46.8724 79.6875C46.8724 78.4436 47.3665 77.2507 48.2461 76.3711C49.1257 75.4915 50.3186 74.9974 51.5625 74.9974C52.8064 74.9974 53.9993 75.4915 54.8789 76.3711L65.625 87.123L95.1211 57.6211C95.5564 57.1853 96.0734 56.8395 96.6425 56.6036C97.2115 56.3677 97.8215 56.2463 98.4375 56.2463C99.0535 56.2463 99.6635 56.3677 100.233 56.6036C100.802 56.8395 101.319 57.1853 101.754 57.6211Z" fill="#ECEBEB"/>
</svg>
