<svg width="150" height="150" viewBox="0 0 150 150" fill="none" xmlns="http://www.w3.org/2000/svg">
<path d="M42.1876 75C42.2211 87.2958 39.3799 99.4291 33.8907 110.432C33.6287 111.002 33.2548 111.514 32.7911 111.937C32.3275 112.36 31.7836 112.686 31.1917 112.895C30.5997 113.104 29.9719 113.192 29.3453 113.154C28.7187 113.116 28.1062 112.952 27.5442 112.672C26.9821 112.393 26.4818 112.003 26.0731 111.527C25.6645 111.05 25.3556 110.497 25.165 109.899C24.9743 109.301 24.9058 108.67 24.9633 108.045C25.0209 107.42 25.2034 106.813 25.5001 106.26C30.3399 96.5519 32.844 85.8474 32.8126 75C32.8016 68.6745 34.2185 62.428 36.9578 56.7264C39.697 51.0247 43.6879 46.0148 48.6329 42.0703C49.6034 41.2933 50.8428 40.9337 52.0784 41.0705C53.3141 41.2073 54.4448 41.8293 55.2218 42.7998C55.9988 43.7703 56.3584 45.0097 56.2216 46.2453C56.0848 47.481 55.4628 48.6117 54.4923 49.3887C50.6453 52.4557 47.5406 56.352 45.41 60.7867C43.2794 65.2214 42.1779 70.08 42.1876 75ZM75.0001 70.3125C73.7569 70.3125 72.5646 70.8064 71.6855 71.6854C70.8065 72.5645 70.3126 73.7568 70.3126 75C70.3116 93.2625 65.6746 111.226 56.836 127.207C56.2331 128.295 56.087 129.578 56.4298 130.773C56.7726 131.969 57.5764 132.979 58.6642 133.582C59.752 134.185 61.0347 134.331 62.2303 133.988C63.4258 133.645 64.4362 132.842 65.0392 131.754C74.6461 114.38 79.6862 94.8528 79.6876 75C79.6876 73.7568 79.1937 72.5645 78.3147 71.6854C77.4356 70.8064 76.2433 70.3125 75.0001 70.3125ZM75.0001 51.5625C68.7841 51.5625 62.8227 54.0318 58.4273 58.4272C54.0319 62.8226 51.5626 68.784 51.5626 75C51.5626 76.2432 52.0565 77.4355 52.9355 78.3146C53.8146 79.1936 55.0069 79.6875 56.2501 79.6875C57.4933 79.6875 58.6856 79.1936 59.5647 78.3146C60.4437 77.4355 60.9376 76.2432 60.9376 75C60.9376 71.2704 62.4192 67.6935 65.0564 65.0563C67.6936 62.4191 71.2705 60.9375 75.0001 60.9375C78.7297 60.9375 82.3066 62.4191 84.9438 65.0563C87.581 67.6935 89.0626 71.2704 89.0626 75C89.1112 93.6384 85.0059 112.053 77.045 128.906C76.7823 129.464 76.632 130.069 76.6029 130.685C76.5737 131.302 76.6663 131.918 76.8752 132.498C77.0841 133.079 77.4054 133.612 77.8206 134.069C78.2358 134.525 78.7368 134.895 79.295 135.158C79.8533 135.421 80.4578 135.571 81.0741 135.6C81.6904 135.629 82.3064 135.537 82.887 135.328C83.4675 135.119 84.0012 134.798 84.4576 134.383C84.914 133.967 85.2842 133.466 85.547 132.908C94.0919 114.803 98.4955 95.0206 98.4376 75C98.4376 68.784 95.9683 62.8226 91.5729 58.4272C87.1775 54.0318 81.2161 51.5625 75.0001 51.5625ZM75.0001 14.0625C58.8437 14.0796 43.3539 20.5052 31.9296 31.9295C20.5053 43.3538 14.0797 58.8436 14.0626 75C14.0713 80.8535 13.0805 86.6655 11.1329 92.1855C10.7188 93.358 10.7874 94.647 11.3236 95.769C11.8598 96.8909 12.8198 97.7538 13.9923 98.168C15.1648 98.5821 16.4538 98.5135 17.5757 97.9773C18.6976 97.441 19.5606 96.4811 19.9747 95.3086C22.2744 88.785 23.4454 81.9171 23.4376 75C23.4376 61.3248 28.8701 48.2097 38.5399 38.5398C48.2097 28.87 61.3249 23.4375 75.0001 23.4375C88.6753 23.4375 101.79 28.87 111.46 38.5398C121.13 48.2097 126.563 61.3248 126.563 75C126.565 85.71 125.527 96.395 123.463 106.904C123.344 107.508 123.344 108.13 123.465 108.734C123.586 109.337 123.825 109.911 124.168 110.423C124.51 110.934 124.951 111.373 125.463 111.715C125.976 112.056 126.55 112.293 127.154 112.412C127.454 112.47 127.758 112.5 128.063 112.5C129.147 112.499 130.198 112.122 131.036 111.432C131.873 110.743 132.446 109.785 132.656 108.721C134.839 97.6132 135.938 86.32 135.938 75C135.919 58.8441 129.493 43.3552 118.069 31.9312C106.645 20.5073 91.156 14.0811 75.0001 14.0625ZM55.3126 89.1621C54.0969 88.9203 52.8349 89.1698 51.8027 89.8561C50.7705 90.5424 50.0521 91.6096 49.8048 92.8242C47.9028 102.185 44.4974 111.177 39.7208 119.449C39.0992 120.526 38.9309 121.806 39.2528 123.007C39.5748 124.208 40.3607 125.232 41.4376 125.854C42.5145 126.475 43.7943 126.643 44.9953 126.321C46.1963 126 47.2203 125.214 47.8419 124.137C53.1206 114.989 56.8803 105.045 58.9747 94.6934C59.0979 94.0897 59.1008 93.4676 58.9834 92.8628C58.866 92.258 58.6304 91.6823 58.2903 91.1686C57.9502 90.6548 57.5121 90.2132 57.0012 89.8689C56.4902 89.5246 55.9164 89.2844 55.3126 89.1621ZM75.0001 32.8125C73.2372 32.8129 71.476 32.9225 69.7267 33.1406C68.5162 33.3223 67.4249 33.9703 66.6858 34.946C65.9468 35.9218 65.6188 37.1479 65.7718 38.3623C65.9249 39.5767 66.5469 40.6831 67.5049 41.4449C68.4629 42.2068 69.6809 42.5637 70.8985 42.4395C75.5164 41.8652 80.2036 42.2784 84.6498 43.6516C89.096 45.0248 93.1999 47.3267 96.6897 50.405C100.18 53.4832 102.976 57.2676 104.893 61.5076C106.811 65.7476 107.806 70.3466 107.813 75C107.811 81.0721 107.436 87.1382 106.688 93.1641C106.605 93.7769 106.645 94.3999 106.805 94.9973C106.964 95.5946 107.241 96.1545 107.617 96.6446C107.994 97.1348 108.464 97.5456 109.001 97.8533C109.537 98.161 110.129 98.3595 110.742 98.4375C110.937 98.4609 111.132 98.4726 111.328 98.4727C112.468 98.4702 113.568 98.0524 114.422 97.2974C115.277 96.5425 115.826 95.5021 115.969 94.3711C116.759 87.9562 117.151 81.4985 117.141 75.0352C117.138 63.8522 112.699 53.1269 104.8 45.2116C96.8997 37.2964 86.1831 32.8373 75.0001 32.8125ZM108.943 107.959C108.347 107.805 107.726 107.77 107.116 107.856C106.506 107.941 105.919 108.147 105.389 108.46C104.858 108.772 104.394 109.187 104.024 109.679C103.654 110.171 103.384 110.732 103.231 111.328C102.375 114.662 101.385 118.008 100.301 121.289C99.9042 122.465 99.9899 123.75 100.539 124.862C101.088 125.975 102.056 126.824 103.231 127.225C103.712 127.388 104.217 127.471 104.725 127.471C105.707 127.47 106.664 127.161 107.461 126.587C108.258 126.013 108.854 125.203 109.166 124.271C110.338 120.803 111.387 117.24 112.301 113.695C112.458 113.099 112.496 112.477 112.412 111.866C112.329 111.255 112.126 110.667 111.814 110.135C111.503 109.602 111.09 109.137 110.598 108.764C110.106 108.392 109.546 108.12 108.949 107.965L108.943 107.959Z" fill="#ECEBEB"/>
</svg>
