<svg width="150" height="150" viewBox="0 0 150 150" fill="none" xmlns="http://www.w3.org/2000/svg">
<path d="M75 14.0625C62.9477 14.0625 51.1661 17.6364 41.145 24.3323C31.1238 31.0282 23.3133 40.5454 18.7011 51.6802C14.0889 62.8151 12.8821 75.0676 15.2334 86.8883C17.5847 98.709 23.3884 109.567 31.9107 118.089C40.433 126.612 51.291 132.415 63.1117 134.767C74.9324 137.118 87.1849 135.911 98.3198 131.299C109.455 126.687 118.972 118.876 125.668 108.855C132.364 98.8339 135.938 87.0523 135.938 75C135.92 58.8436 129.495 43.3538 118.071 31.9295C106.646 20.5052 91.1564 14.0796 75 14.0625ZM126.563 75C126.575 87.0559 122.341 98.7309 114.604 107.977L42.0235 35.3906C49.5528 29.1268 58.7103 25.137 68.4245 23.888C78.1387 22.6389 88.0077 24.1825 96.8766 28.3378C105.746 32.4932 113.248 39.0886 118.505 47.3522C123.762 55.6159 126.557 65.2058 126.563 75ZM23.4375 75C23.4255 62.9441 27.6595 51.2691 35.3965 42.0234L107.977 114.609C100.447 120.873 91.2898 124.863 81.5756 126.112C71.8614 127.361 61.9924 125.818 53.1234 121.662C44.2545 117.507 36.7525 110.911 31.4953 102.648C26.2381 94.3841 23.4431 84.7942 23.4375 75Z" fill="#ECEBEB"/>
</svg>
