<svg width="150" height="150" viewBox="0 0 150 150" fill="none" xmlns="http://www.w3.org/2000/svg">
<path d="M121.875 46.875H103.125V32.8125C103.125 25.3533 100.162 18.1996 94.8874 12.9251C89.6129 7.65066 82.4592 4.6875 75 4.6875C67.5408 4.6875 60.3871 7.65066 55.1126 12.9251C49.8382 18.1996 46.875 25.3533 46.875 32.8125V46.875H28.125C25.6386 46.875 23.254 47.8627 21.4959 49.6209C19.7377 51.379 18.75 53.7636 18.75 56.25V121.875C18.75 124.361 19.7377 126.746 21.4959 128.504C23.254 130.262 25.6386 131.25 28.125 131.25H121.875C124.361 131.25 126.746 130.262 128.504 128.504C130.262 126.746 131.25 124.361 131.25 121.875V56.25C131.25 53.7636 130.262 51.379 128.504 49.6209C126.746 47.8627 124.361 46.875 121.875 46.875ZM28.125 75H121.875V84.375H28.125V75ZM28.125 93.75H121.875V103.125H28.125V93.75ZM56.25 32.8125C56.25 27.8397 58.2254 23.0706 61.7417 19.5542C65.2581 16.0379 70.0272 14.0625 75 14.0625C79.9728 14.0625 84.7419 16.0379 88.2582 19.5542C91.7746 23.0706 93.75 27.8397 93.75 32.8125V46.875H56.25V32.8125ZM121.875 56.25V65.625H28.125V56.25H121.875ZM121.875 121.875H28.125V112.5H121.875V121.875Z" fill="#ECEBEB"/>
</svg>
